<svg version="1.0" xmlns="http://www.w3.org/2000/svg" width="933.333" height="933.333" viewBox="0 0 700 700"><path d="M275.7 58.6c-.1.1-5.8.4-12.7.8-12.4.6-30.9 2.7-40.5 4.6-2.7.5-6.6 1.2-8.5 1.5-9.1 1.5-30.8 7.9-43 12.8-42.3 16.8-69.4 42.3-78.9 74.3-1.1 3.8-2.4 10.5-2.8 14.9-1.1 11.5.1 35.7 2.1 43.5l1.7 6.6-3.9 15.4c-3.5 13.7-4 16.9-4 27-.1 38.5 22 74.9 68.9 113.5 12.3 10.1 38.5 26.4 58.6 36.5 38.9 19.5 91.4 35.6 131.8 40.5 2.8.3 6.5.8 8.3 1.1 1.7.2 4.7.6 6.5.8 16.2 2.3 63.3 2.3 74.8.1.9-.2 4-.6 7-1 18.5-2.1 41.3-8 58.8-15.2l8.4-3.5 6.1 1.7c12.2 3.4 16.6 6.9 17.3 13.7.5 4.2.3 4.5-3.3 7-2.2 1.5-8.4 4.2-13.9 6.1-25.6 8.9-36.3 16.2-47.4 32.7-5.8 8.5-10.4 18.1-14.6 30.5-.8 2.2-2.8 7.8-4.5 12.5-8 21.7-9.1 31.5-4.4 40 7.5 13.7 33.9 37.6 53.4 48.3 12.4 6.8 37.7 13.9 54.5 15.3 3.3.3 6.5.7 7.2.9 1.6.5 2.1-.3 2.8-4.6.3-1.9 2.4-11.1 4.6-20.5 2.1-9.4 3.9-18 3.9-19 0-1.7-1.2-2.1-8.7-3.2-8-1.1-22.8-4.9-27.8-7.2-1.1-.5-4.8-2.1-8.2-3.5-22.2-9-46.8-29.4-51.2-42.4-2.1-6.2-1.4-9.1 2.8-13.2 6.3-5.9 27.2-15.6 39.6-18.4 11.3-2.5 15.7-5.1 18.8-11.2 1.4-2.6 5.6-17.2 7.1-24.7.3-1.1 1.6-7.1 3-13.1 1.4-6.1 3.2-14.4 4-18.5 1.8-9.7 1.5-28.2-.5-33l-1.6-3.5 5.3-6.9c12.8-16.7 18-32.3 18.3-54.3l.1-6.1 6.4-5c19.9-15.7 31.9-33.6 36.1-54 1.6-7.6 2.2-32.9 1-39.7-1.3-7.3-1.8-9.4-3.5-15-15.3-51.1-73.2-101.5-152.5-132.8-35.6-14-77.6-25-111.7-29.1-2.7-.3-6.8-.9-9.1-1.2-4.4-.5-6-.7-21.7-1.9-7.6-.6-39.8-1.3-40.3-.9z"/></svg>