<?xml version="1.0" standalone="no"?>
<!DOCTYPE svg PUBLIC "-//W3C//DTD SVG 20010904//EN"
 "http://www.w3.org/TR/2001/REC-SVG-20010904/DTD/svg10.dtd">
<svg version="1.0" xmlns="http://www.w3.org/2000/svg"
 width="700.000000pt" height="700.000000pt" viewBox="0 0 700.000000 700.000000"
 preserveAspectRatio="xMidYMid meet">
<metadata>
Created by potrace 1.14, written by Peter Selinger 2001-2017
</metadata>
<g transform="translate(0.000000,700.000000) scale(0.100000,-0.100000)"
fill="#000000" stroke="none">
<path d="M2757 6414 c-1 -1 -58 -4 -127 -8 -124 -6 -309 -27 -405 -46 -27 -5
-66 -12 -85 -15 -91 -15 -308 -79 -430 -128 -423 -168 -694 -423 -789 -743
-11 -38 -24 -105 -28 -149 -11 -115 1 -357 21 -435 l17 -66 -39 -154 c-35
-137 -40 -169 -40 -270 -1 -385 220 -749 689 -1135 123 -101 385 -264 586
-365 389 -195 914 -356 1318 -405 28 -3 65 -8 83 -11 17 -2 47 -6 65 -8 162
-23 633 -23 748 -1 9 2 40 6 70 10 185 21 413 80 588 152 l84 35 61 -17 c122
-34 166 -69 173 -137 5 -42 3 -45 -33 -70 -22 -15 -84 -42 -139 -61 -256 -89
-363 -162 -474 -327 -58 -85 -104 -181 -146 -305 -8 -22 -28 -78 -45 -125 -80
-217 -91 -315 -44 -400 75 -137 339 -376 534 -483 124 -68 377 -139 545 -153
33 -3 65 -7 72 -9 16 -5 21 3 28 46 3 19 24 111 46 205 21 94 39 180 39 190 0
17 -12 21 -87 32 -80 11 -228 49 -278 72 -11 5 -48 21 -82 35 -222 90 -468
294 -512 424 -21 62 -14 91 28 132 63 59 272 156 396 184 113 25 157 51 188
112 14 26 56 172 71 247 3 11 16 71 30 131 14 61 32 144 40 185 18 97 15 282
-5 330 l-16 35 53 69 c128 167 180 323 183 543 l1 61 64 50 c199 157 319 336
361 540 16 76 22 329 10 397 -13 73 -18 94 -35 150 -153 511 -732 1015 -1525
1328 -356 140 -776 250 -1117 291 -27 3 -68 9 -91 12 -44 5 -60 7 -217 19 -76
6 -398 13 -403 9z"/>
</g>
</svg>
